<svg xmlns="http://www.w3.org/2000/svg" viewBox="0 0 24 24" fill="none" stroke="#008000" stroke-width="2" stroke-linecap="round" stroke-linejoin="round">
  <path d="M13.5 2c-3 0-5.5 2-6 5h-4l3 3 3-3h-2.5c.4-2 2-3.5 4-3.5 2.2 0 4 1.8 4 4s-1.8 4-4 4c-1 0-2-.4-2.7-1l-1.6 1.2c1 1.3 2.5 2.1 4.3 2.1 3.3 0 6-2.7 6-6s-2.7-6-6-6z"/>
  <path d="M10.5 22c3 0 5.5-2 6-5h4l-3-3-3 3h2.5c-.4 2-2 3.5-4 3.5-2.2 0-4-1.8-4-4s1.8-4 4-4c1 0 2 .4 2.7 1l1.6-1.2c-1-1.3-2.5-2.1-4.3-2.1-3.3 0-6 2.7-6 6s2.7 6 6 6z"/>
  <path d="M6 11.9l-3.2-3.2c-.4-.4-.4-1 0-1.4s1-.4 1.4 0l3.1 3.1 1.7-1c.4-.2 1-.1 1.3.3s.1 1-.3 1.3l-2.4 1.4c-.1.1-.3.1-.4.1s-.3-.1-.4-.2z"/>
</svg>